<?xml version="1.0" standalone="no"?><!DOCTYPE svg PUBLIC "-//W3C//DTD SVG 1.1//EN" "http://www.w3.org/Graphics/SVG/1.1/DTD/svg11.dtd"><svg t="1736850042062" class="icon" viewBox="0 0 1024 1024" version="1.1" xmlns="http://www.w3.org/2000/svg" p-id="19580" width="64" height="64" xmlns:xlink="http://www.w3.org/1999/xlink"><path d="M351.5 896H256a32 32 0 0 1-31.9-32V160a32 32 0 0 1 31.9-32h448.1A32 32 0 0 1 736 160v256a32 32 0 0 0 64 0V160a96.1 96.1 0 0 0-95.9-96H256A96.2 96.2 0 0 0 160 160v704a96.2 96.2 0 0 0 96 96h95.5a32 32 0 0 0 0-64z" fill="#1c9953" p-id="19581"></path><path d="M860 816L763.7 650a32.8 32.8 0 0 0-7.7-8.8 189.4 189.4 0 0 0 5.1-42.9 192.1 192.1 0 0 0-384.1 0 189 189 0 0 0 5.2 43.5 32.7 32.7 0 0 0-7 8.2l-96 166a32 32 0 0 0 30 47.9l93.9-6 41.6 84.3A32.1 32.1 0 0 0 472.2 960h1a32 32 0 0 0 27.7-16L570 825.3l68 118.7a32 32 0 0 0 27.7 16h1a32.1 32.1 0 0 0 27.7-17.8l41.6-84.3 93.9 6a32 32 0 0 0 30-47.9zM569.1 470a128 128 0 1 1-128 128A128.1 128.1 0 0 1 569.1 470z m-93.7 390l-24.6-50A32.1 32.1 0 0 0 420 792.6l-55.4 3.6 49.3-85.5A192.8 192.8 0 0 0 520 783.4z m243.5-67.6A32.1 32.1 0 0 0 688.1 810l-24.6 50-44.5-77A192.9 192.9 0 0 0 724.6 710l50 86.1zM672 224a32 32 0 0 0-32-32H320a32 32 0 1 0 0 64h320a32 32 0 0 0 32-32zM320 320a32 32 0 0 0 0 64h160a32 32 0 1 0 0-64z" fill="#1c9953" p-id="19582"></path></svg>